<?xml version="1.0" standalone="no"?>
<!DOCTYPE svg PUBLIC "-//W3C//DTD SVG 1.1//EN" "http://www.w3.org/Graphics/SVG/1.1/DTD/svg11.dtd">

<svg width="800" height="600" version="1.1" xmlns="http://www.w3.org/2000/svg">
	<ellipse stroke="black" stroke-width="1" fill="none" cx="300.5" cy="147.5" rx="30" ry="30"/>
	<text x="280.5" y="153.5" font-family="Times New Roman" font-size="20">S00</text>
	<ellipse stroke="black" stroke-width="1" fill="none" cx="195.5" cy="32.5" rx="30" ry="30"/>
	<text x="175.5" y="38.5" font-family="Times New Roman" font-size="20">S01</text>
	<ellipse stroke="black" stroke-width="1" fill="none" cx="195.5" cy="32.5" rx="24" ry="24"/>
	<ellipse stroke="black" stroke-width="1" fill="none" cx="317.5" cy="32.5" rx="30" ry="30"/>
	<text x="297.5" y="38.5" font-family="Times New Roman" font-size="20">S02</text>
	<ellipse stroke="black" stroke-width="1" fill="none" cx="317.5" cy="32.5" rx="24" ry="24"/>
	<ellipse stroke="black" stroke-width="1" fill="none" cx="450.5" cy="32.5" rx="30" ry="30"/>
	<text x="430.5" y="38.5" font-family="Times New Roman" font-size="20">S03</text>
	<ellipse stroke="black" stroke-width="1" fill="none" cx="450.5" cy="32.5" rx="24" ry="24"/>
	<ellipse stroke="black" stroke-width="1" fill="none" cx="606.5" cy="32.5" rx="30" ry="30"/>
	<text x="586.5" y="38.5" font-family="Times New Roman" font-size="20">S04</text>
	<ellipse stroke="black" stroke-width="1" fill="none" cx="542.5" cy="147.5" rx="30" ry="30"/>
	<text x="522.5" y="153.5" font-family="Times New Roman" font-size="20">S05</text>
	<ellipse stroke="black" stroke-width="1" fill="none" cx="542.5" cy="147.5" rx="24" ry="24"/>
	<ellipse stroke="black" stroke-width="1" fill="none" cx="300.5" cy="419.5" rx="30" ry="30"/>
	<text x="280.5" y="425.5" font-family="Times New Roman" font-size="20">S15</text>
	<ellipse stroke="black" stroke-width="1" fill="none" cx="300.5" cy="419.5" rx="24" ry="24"/>
	<ellipse stroke="black" stroke-width="1" fill="none" cx="129.5" cy="317.5" rx="30" ry="30"/>
	<text x="109.5" y="323.5" font-family="Times New Roman" font-size="20">S16</text>
	<ellipse stroke="black" stroke-width="1" fill="none" cx="129.5" cy="317.5" rx="24" ry="24"/>
	<ellipse stroke="black" stroke-width="1" fill="none" cx="54.5" cy="402.5" rx="30" ry="30"/>
	<text x="34.5" y="408.5" font-family="Times New Roman" font-size="20">S18</text>
	<ellipse stroke="black" stroke-width="1" fill="none" cx="54.5" cy="402.5" rx="24" ry="24"/>
	<ellipse stroke="black" stroke-width="1" fill="none" cx="210.5" cy="402.5" rx="30" ry="30"/>
	<text x="190.5" y="408.5" font-family="Times New Roman" font-size="20">S17</text>
	<ellipse stroke="black" stroke-width="1" fill="none" cx="450.5" cy="233.5" rx="30" ry="30"/>
	<text x="430.5" y="239.5" font-family="Times New Roman" font-size="20">S06</text>
	<ellipse stroke="black" stroke-width="1" fill="none" cx="586.5" cy="233.5" rx="30" ry="30"/>
	<text x="566.5" y="239.5" font-family="Times New Roman" font-size="20">S07</text>
	<ellipse stroke="black" stroke-width="1" fill="none" cx="586.5" cy="233.5" rx="24" ry="24"/>
	<ellipse stroke="black" stroke-width="1" fill="none" cx="450.5" cy="366.5" rx="30" ry="30"/>
	<text x="430.5" y="372.5" font-family="Times New Roman" font-size="20">S08</text>
	<ellipse stroke="black" stroke-width="1" fill="none" cx="450.5" cy="366.5" rx="24" ry="24"/>
	<ellipse stroke="black" stroke-width="1" fill="none" cx="542.5" cy="366.5" rx="30" ry="30"/>
	<text x="522.5" y="372.5" font-family="Times New Roman" font-size="20">S09</text>
	<ellipse stroke="black" stroke-width="1" fill="none" cx="661.5" cy="366.5" rx="30" ry="30"/>
	<text x="641.5" y="372.5" font-family="Times New Roman" font-size="20">S10</text>
	<ellipse stroke="black" stroke-width="1" fill="none" cx="661.5" cy="366.5" rx="24" ry="24"/>
	<ellipse stroke="black" stroke-width="1" fill="none" cx="450.5" cy="511.5" rx="30" ry="30"/>
	<text x="430.5" y="517.5" font-family="Times New Roman" font-size="20">S11</text>
	<ellipse stroke="black" stroke-width="1" fill="none" cx="450.5" cy="511.5" rx="24" ry="24"/>
	<ellipse stroke="black" stroke-width="1" fill="none" cx="661.5" cy="511.5" rx="30" ry="30"/>
	<text x="641.5" y="517.5" font-family="Times New Roman" font-size="20">S12</text>
	<ellipse stroke="black" stroke-width="1" fill="none" cx="767.5" cy="511.5" rx="30" ry="30"/>
	<text x="747.5" y="517.5" font-family="Times New Roman" font-size="20">S13</text>
	<ellipse stroke="black" stroke-width="1" fill="none" cx="767.5" cy="511.5" rx="24" ry="24"/>
	<ellipse stroke="black" stroke-width="1" fill="none" cx="347.5" cy="323.5" rx="30" ry="30"/>
	<text x="327.5" y="329.5" font-family="Times New Roman" font-size="20">S14</text>
	<ellipse stroke="black" stroke-width="1" fill="none" cx="347.5" cy="323.5" rx="24" ry="24"/>
	<ellipse stroke="black" stroke-width="1" fill="none" cx="54.5" cy="258.5" rx="30" ry="30"/>
	<text x="34.5" y="264.5" font-family="Times New Roman" font-size="20">S19</text>
	<ellipse stroke="black" stroke-width="1" fill="none" cx="54.5" cy="258.5" rx="24" ry="24"/>
	<polygon stroke="black" stroke-width="1" points="280.272,125.345 215.728,54.655"/>
	<polygon fill="black" stroke-width="1" points="215.728,54.655 217.43,63.934 224.815,57.191"/>
	<text x="41.5" y="110.5" font-family="Times New Roman" font-size="20">{ | } | ( | ) | , | : | ; | .</text>
	<polygon stroke="black" stroke-width="1" points="304.887,117.823 313.113,62.177"/>
	<polygon fill="black" stroke-width="1" points="313.113,62.177 306.997,69.36 316.889,70.823"/>
	<text x="257.5" y="94.5" font-family="Times New Roman" font-size="20">EOF</text>
	<polygon stroke="black" stroke-width="1" points="324.308,129.247 426.692,50.753"/>
	<polygon fill="black" stroke-width="1" points="426.692,50.753 417.301,51.652 423.385,59.588"/>
	<text x="321.5" y="81.5" font-family="Times New Roman" font-size="20">[0-9]</text>
	<path stroke="black" stroke-width="1" fill="none" d="M 467.782,56.879 A 22.5,22.5 0 1 1 441.661,61.046"/>
	<text x="448.5" y="122.5" font-family="Times New Roman" font-size="20">[0-9]</text>
	<polygon fill="black" stroke-width="1" points="441.661,61.046 433.58,65.913 442.495,70.443"/>
	<polygon stroke="black" stroke-width="1" points="480.5,32.5 576.5,32.5"/>
	<polygon fill="black" stroke-width="1" points="576.5,32.5 568.5,27.5 568.5,37.5"/>
	<text x="525.5" y="23.5" font-family="Times New Roman" font-size="20">.</text>
	<polygon stroke="black" stroke-width="1" points="330.5,147.5 512.5,147.5"/>
	<polygon fill="black" stroke-width="1" points="512.5,147.5 504.5,142.5 504.5,152.5"/>
	<text x="374.5" y="168.5" font-family="Times New Roman" font-size="20">_ | A-Za-z</text>
	<path stroke="black" stroke-width="1" fill="none" d="M 569.297,134.275 A 22.5,22.5 0 1 1 569.297,160.725"/>
	<text x="615.5" y="153.5" font-family="Times New Roman" font-size="20">_ | A-Za-z | [0-9]</text>
	<polygon fill="black" stroke-width="1" points="569.297,160.725 572.83,169.473 578.708,161.382"/>
	<polygon stroke="black" stroke-width="1" points="300.5,177.5 300.5,389.5"/>
	<polygon fill="black" stroke-width="1" points="300.5,389.5 305.5,381.5 295.5,381.5"/>
	<text x="252.5" y="289.5" font-family="Times New Roman" font-size="20">+ | -</text>
	<polygon stroke="black" stroke-width="1" points="279.225,168.651 150.775,296.349"/>
	<polygon fill="black" stroke-width="1" points="150.775,296.349 159.974,294.255 152.924,287.163"/>
	<text x="156.5" y="223.5" font-family="Times New Roman" font-size="20">&lt; | &gt;</text>
	<polygon stroke="black" stroke-width="1" points="109.651,339.995 74.349,380.005"/>
	<polygon fill="black" stroke-width="1" points="74.349,380.005 83.391,377.314 75.892,370.698"/>
	<text x="69.5" y="351.5" font-family="Times New Roman" font-size="20">=</text>
	<polygon stroke="black" stroke-width="1" points="290.515,175.79 220.485,374.21"/>
	<polygon fill="black" stroke-width="1" points="220.485,374.21 227.862,368.33 218.432,365.002"/>
	<text x="239.5" y="273.5" font-family="Times New Roman" font-size="20">!</text>
	<polygon stroke="black" stroke-width="1" points="180.5,402.5 84.5,402.5"/>
	<polygon fill="black" stroke-width="1" points="84.5,402.5 92.5,407.5 92.5,397.5"/>
	<text x="124.5" y="393.5" font-family="Times New Roman" font-size="20">=</text>
	<polygon stroke="black" stroke-width="1" points="326.526,162.422 424.474,218.578"/>
	<polygon fill="black" stroke-width="1" points="424.474,218.578 420.021,210.262 415.047,218.937"/>
	<text x="361.5" y="211.5" font-family="Times New Roman" font-size="20">"</text>
	<polygon stroke="black" stroke-width="1" points="480.5,233.5 556.5,233.5"/>
	<polygon fill="black" stroke-width="1" points="556.5,233.5 548.5,228.5 548.5,238.5"/>
	<text x="514.5" y="254.5" font-family="Times New Roman" font-size="20">"</text>
	<path stroke="black" stroke-width="1" fill="none" d="M 478.255,244.576 A 22.5,22.5 0 1 1 458.591,262.267"/>
	<text x="500.5" y="304.5" font-family="Times New Roman" font-size="20">[\x20-\x21] | [\x23-\x7E]</text>
	<polygon fill="black" stroke-width="1" points="458.591,262.267 454.452,270.744 464.397,269.702"/>
	<polygon stroke="black" stroke-width="1" points="317.453,172.251 433.547,341.749"/>
	<polygon fill="black" stroke-width="1" points="433.547,341.749 433.152,332.323 424.901,337.974"/>
	<text x="362.5" y="276.5" font-family="Times New Roman" font-size="20">/</text>
	<polygon stroke="black" stroke-width="1" points="480.5,366.5 512.5,366.5"/>
	<polygon fill="black" stroke-width="1" points="512.5,366.5 504.5,361.5 504.5,371.5"/>
	<text x="493.5" y="387.5" font-family="Times New Roman" font-size="20">/</text>
	<path stroke="black" stroke-width="1" fill="none" d="M 555.725,393.297 A 22.5,22.5 0 1 1 529.275,393.297"/>
	<text x="486.5" y="455.5" font-family="Times New Roman" font-size="20">[\x20-\x7E]</text>
	<polygon fill="black" stroke-width="1" points="529.275,393.297 520.527,396.83 528.618,402.708"/>
	<polygon stroke="black" stroke-width="1" points="572.5,366.5 631.5,366.5"/>
	<polygon fill="black" stroke-width="1" points="631.5,366.5 623.5,361.5 623.5,371.5"/>
	<text x="592.5" y="387.5" font-family="Times New Roman" font-size="20">\n</text>
	<polygon stroke="black" stroke-width="1" points="450.5,396.5 450.5,481.5"/>
	<polygon fill="black" stroke-width="1" points="450.5,481.5 455.5,473.5 445.5,473.5"/>
	<text x="435.5" y="445.5" font-family="Times New Roman" font-size="20">*</text>
	<path stroke="black" stroke-width="1" fill="none" d="M 425.319,527.591 A 22.5,22.5 0 1 1 422.411,501.301"/>
	<text x="94.5" y="525.5" font-family="Times New Roman" font-size="20">[\x20-\x29] | [\x2b-\x7E] | \n</text>
	<polygon fill="black" stroke-width="1" points="422.411,501.301 417.938,492.995 412.985,501.683"/>
	<polygon stroke="black" stroke-width="1" points="480.5,511.5 631.5,511.5"/>
	<polygon fill="black" stroke-width="1" points="631.5,511.5 623.5,506.5 623.5,516.5"/>
	<text x="551.5" y="532.5" font-family="Times New Roman" font-size="20">*</text>
	<polygon stroke="black" stroke-width="1" points="691.5,511.5 737.5,511.5"/>
	<polygon fill="black" stroke-width="1" points="737.5,511.5 729.5,506.5 729.5,516.5"/>
	<text x="711.5" y="532.5" font-family="Times New Roman" font-size="20">/</text>
	<path stroke="black" stroke-width="1" fill="none" d="M 635.698,526.739 A 182.708,182.708 0 0 1 476.302,526.739"/>
	<polygon fill="black" stroke-width="1" points="476.302,526.739 481.32,534.727 485.682,525.729"/>
	<text x="415.5" y="566.5" font-family="Times New Roman" font-size="20">[\x20-\x29] | [\x2b-\x7E] | \n</text>
	<path stroke="black" stroke-width="1" fill="none" d="M 648.275,484.703 A 22.5,22.5 0 1 1 674.725,484.703"/>
	<text x="656.5" y="435.5" font-family="Times New Roman" font-size="20">*</text>
	<polygon fill="black" stroke-width="1" points="674.725,484.703 683.473,481.17 675.382,475.292"/>
	<path stroke="black" stroke-width="1" fill="none" d="M 581.573,49.051 A 119.421,119.421 0 0 1 475.427,49.051"/>
	<polygon fill="black" stroke-width="1" points="475.427,49.051 480.371,57.085 484.816,48.127"/>
	<text x="504.5" y="82.5" font-family="Times New Roman" font-size="20">[0-9]</text>
	<polygon stroke="black" stroke-width="1" points="308.24,176.484 339.76,294.516"/>
	<polygon fill="black" stroke-width="1" points="339.76,294.516 342.527,285.497 332.865,288.077"/>
	<text x="306.5" y="246.5" font-family="Times New Roman" font-size="20">*</text>
	<polygon stroke="black" stroke-width="1" points="273.155,159.839 81.845,246.161"/>
	<polygon fill="black" stroke-width="1" points="81.845,246.161 91.194,247.429 87.081,238.313"/>
	<text x="155.5" y="193.5" font-family="Times New Roman" font-size="20">=</text>
	<polygon stroke="black" stroke-width="1" points="54.5,288.5 54.5,372.5"/>
	<polygon fill="black" stroke-width="1" points="54.5,372.5 59.5,364.5 49.5,364.5"/>
	<text x="32.5" y="336.5" font-family="Times New Roman" font-size="20">=</text>
	<polygon stroke="black" stroke-width="1" points="252.5,141.5 270.732,143.779"/>
	<polygon fill="black" stroke-width="1" points="270.732,143.779 263.414,137.825 262.173,147.748"/>
</svg>

